# xmcd
#
# Track frame offsets:
#	150
#	19715
#	37257
#	60083
#	74868
#	93305
#	106702
#	128749
#	146024
#	164460
#	192182
#	208120
#	223019
#	242589
#	281715
#
# Disc length: 3996 seconds
#
# Revision: 2
# Processed by: cddbd v1.5.2PL0 Copyright (c) Steve Scherf et al.
# Submitted via: audiograbber 1.83.01
#
DISCID=e00f9a0f
DTITLE=Köster -  Hocker - Silberhochzeit CD 1 (live)
DYEAR=2005
DGENRE=Blues
TTITLE0=Kamell vum letzt Johr
TTITLE1=Kopp e'n dr Sand
TTITLE2=Fette Ratten
TTITLE3=Jogging Botz voll Bloot
TTITLE4=Om falsche Bein
TTITLE5=Kleine Mann
TTITLE6=Windije Latään
TTITLE7=F*ck Chadonnay
TTITLE8=Helau
TTITLE9=Nach dem Happy End
TTITLE10=Helja
TTITLE11=Der Herr da im Spiegel
TTITLE12=D'r Jupp
TTITLE13=Rude Jolf
TTITLE14=Ei Mädche
EXTD=YEAR: 2005
EXTT0=
EXTT1=
EXTT2=
EXTT3=
EXTT4=
EXTT5=
EXTT6=
EXTT7=
EXTT8=
EXTT9=
EXTT10=
EXTT11=
EXTT12=
EXTT13=
EXTT14=
PLAYORDER=
